<svg width="48" height="48" viewBox="0 0 48 48" fill="none" xmlns="http://www.w3.org/2000/svg">
<path d="M39.458 7.75L39.558 8.06999L40.662 11.914C40.762 12.2625 40.7324 12.6353 40.5787 12.9637C40.425 13.292 40.1576 13.5536 39.826 13.7L39.634 13.77L18.18 19.92H40.5C40.8627 19.9206 41.2129 20.0527 41.4858 20.2917C41.7586 20.5307 41.9356 20.8605 41.984 21.22L41.998 21.42V38.418C41.9981 39.8186 41.4638 41.1664 40.5042 42.1866C39.5446 43.2068 38.232 43.8224 36.834 43.908L36.498 43.918H11.5C10.0994 43.9181 8.75159 43.3838 7.73141 42.4242C6.71123 41.4646 6.09556 40.152 6.01 38.754L6 38.418V21.634L4.956 17.992C4.57016 16.6456 4.71249 15.2028 5.35396 13.9578C5.99542 12.7127 7.0877 11.7593 8.408 11.292L8.728 11.188L32.756 4.3C34.1024 3.91415 35.5452 4.05648 36.7902 4.69795C38.0353 5.33942 38.9887 6.4317 39.456 7.752L39.458 7.75ZM12.546 13.214L9.554 14.074C8.95976 14.2445 8.44977 14.6291 8.12252 15.1536C7.79526 15.6781 7.67394 16.3053 7.782 16.914L7.842 17.164L8.53 19.566L9.12 19.396L12.546 13.214ZM22.058 10.488L16.624 12.046L13.196 18.226L18.632 16.67L22.058 10.488ZM31.574 7.758L26.138 9.318L22.712 15.498L28.144 13.942L31.574 7.758ZM35.268 7.292L32.226 12.772L37.364 11.298L36.676 8.89799C36.5748 8.5428 36.3959 8.21451 36.1525 7.93679C35.909 7.65907 35.6069 7.43884 35.268 7.292Z" fill="#FCBA04"/>
</svg>
